<?xml version="1.0" encoding="UTF-8" standalone="no"?>
<svg
   xmlns:dc="http://purl.org/dc/elements/1.1/"
   xmlns:cc="http://creativecommons.org/ns#"
   xmlns:rdf="http://www.w3.org/1999/02/22-rdf-syntax-ns#"
   xmlns:svg="http://www.w3.org/2000/svg"
   xmlns="http://www.w3.org/2000/svg"
   xmlns:sodipodi="http://sodipodi.sourceforge.net/DTD/sodipodi-0.dtd"
   xmlns:inkscape="http://www.inkscape.org/namespaces/inkscape"
   version="1.1"
   id="svg2"
   xml:space="preserve"
   width="377.79999"
   height="150.30667"
   viewBox="0 0 377.79999 150.30667"
   sodipodi:docname="DERICHEBOURG-interim (1).eps"><metadata
     id="metadata8"><rdf:RDF><cc:Work
         rdf:about=""><dc:format>image/svg+xml</dc:format><dc:type
           rdf:resource="http://purl.org/dc/dcmitype/StillImage" /></cc:Work></rdf:RDF></metadata><defs
     id="defs6" /><sodipodi:namedview
     pagecolor="#ffffff"
     bordercolor="#666666"
     borderopacity="1"
     objecttolerance="10"
     gridtolerance="10"
     guidetolerance="10"
     inkscape:pageopacity="0"
     inkscape:pageshadow="2"
     inkscape:window-width="640"
     inkscape:window-height="480"
     id="namedview4" /><g
     id="g10"
     inkscape:groupmode="layer"
     inkscape:label="ink_ext_XXXXXX"
     transform="matrix(1.3333333,0,0,-1.3333333,0,150.30667)"><g
       id="g12"
       transform="scale(0.1)"><path
         d="m 0,161.078 h 2833.53 v 32.695 H 0 v -32.695"
         style="fill:#ed1c24;fill-opacity:1;fill-rule:nonzero;stroke:none"
         id="path14" /><path
         d="m 59.5,284.27 h 38.8594 c 59.8596,0 77.6996,40.621 77.6996,75.621 0,40.937 -22.047,75.597 -78.4106,75.597 H 59.5 Z m 45.852,194.98 C 192.52,479.25 237.32,425 237.32,359.527 237.32,290.922 193.922,240.512 98.7109,240.512 H 0 V 479.25 h 105.352"
         style="fill:#231f20;fill-opacity:1;fill-rule:nonzero;stroke:none"
         id="path16" /><path
         d="M 447.34,240.512 H 271.27 V 479.25 H 444.879 V 435.488 H 330.781 v -50.039 h 108.86 V 341.68 H 330.781 V 284.27 H 447.34 v -43.758"
         style="fill:#231f20;fill-opacity:1;fill-rule:nonzero;stroke:none"
         id="path18" /><path
         d="m 541.852,381.238 h 31.507 c 16.45,0 32.551,7 32.551,27.301 0,17.859 -11.551,26.961 -33.949,26.961 h -30.109 z m 47.25,98.024 c 49.019,0 78.07,-32.903 78.07,-68.614 0,-26.25 -13.66,-45.859 -40.961,-58.457 24.508,-12.25 31.848,-41.671 65.461,-111.671 h -65.461 c -25.551,51.109 -35,96.968 -67.211,96.968 H 541.852 V 240.52 h -59.5 v 238.742 h 106.75"
         style="fill:#231f20;fill-opacity:1;fill-rule:nonzero;stroke:none"
         id="path20" /><path
         d="m 710.91,240.512 h 59.5 V 479.25 h -59.5 V 240.512"
         style="fill:#231f20;fill-opacity:1;fill-rule:nonzero;stroke:none"
         id="path22" /><path
         d="m 1037.5,261.18 c -33.26,-17.16 -58.461,-23.801 -93.82,-23.801 -92.75,0 -138.95,60.191 -138.95,121.812 0,63.7 52.149,123.207 143.508,123.207 33.262,0 63.012,-6.988 86.452,-21 v -53.199 c -26.24,14.692 -52.838,24.5 -82.249,24.5 -50.75,0 -86.453,-30.121 -86.453,-72.461 0,-42.707 35.34,-73.16 85.051,-73.16 31.152,0 52.161,9.801 86.461,26.262 v -52.16"
         style="fill:#231f20;fill-opacity:1;fill-rule:nonzero;stroke:none"
         id="path24" /><path
         d="m 1312.63,240.512 h -59.51 v 96.617 H 1134.11 V 240.512 H 1074.6 V 479.25 h 59.51 v -95.922 h 119.01 v 95.922 h 59.51 V 240.512"
         style="fill:#231f20;fill-opacity:1;fill-rule:nonzero;stroke:none"
         id="path26" /><path
         d="M 1532.1,240.512 H 1356.02 V 479.25 h 173.63 V 435.488 H 1415.53 V 385.449 H 1524.4 V 341.68 h -108.87 v -57.41 h 116.57 v -43.758"
         style="fill:#231f20;fill-opacity:1;fill-rule:nonzero;stroke:none"
         id="path28" /><path
         d="m 1626.6,284.27 h 33.6 c 32.9,0 44.46,8.761 44.46,29.421 0,17.489 -15.4,26.938 -36.4,26.938 h -41.66 z m 0,100.121 h 31.15 c 21.71,0 30.46,13.289 30.46,25.898 0,12.262 -8.75,25.199 -30.46,25.199 h -31.15 z m 43.76,94.859 c 56.35,0 79.1,-33.25 79.1,-59.859 0,-19.95 -12.6,-37.793 -32.55,-47.602 33.95,-8.75 50.76,-33.258 50.76,-61.269 0,-27.29 -14.7,-70.008 -84.36,-70.008 H 1567.09 V 479.25 h 103.27"
         style="fill:#231f20;fill-opacity:1;fill-rule:nonzero;stroke:none"
         id="path30" /><path
         d="m 1927.63,432.691 c -45.5,0 -75.6,-29.062 -75.6,-72.812 0,-43.758 30.1,-72.809 75.6,-72.809 45.15,0 75.27,29.051 75.27,72.809 0,43.75 -30.12,72.812 -75.27,72.812 z m 0,-195.32 c -87.52,0 -136.86,61.598 -136.86,122.508 0,57.75 46.9,122.512 136.86,122.512 89.97,0 136.51,-65.102 136.51,-122.512 0,-61.258 -50.74,-122.508 -136.51,-122.508"
         style="fill:#231f20;fill-opacity:1;fill-rule:nonzero;stroke:none"
         id="path32" /><path
         d="M 2333.33,479.25 V 343.781 c 0,-79.109 -53.91,-106.402 -119.37,-106.402 -69.3,0 -119.35,32.199 -119.35,106.051 v 135.82 h 59.51 V 342.039 c 0,-34.32 24.84,-54.961 59.15,-54.961 31.51,0 60.56,16.453 60.56,59.16 V 479.25 h 59.5"
         style="fill:#231f20;fill-opacity:1;fill-rule:nonzero;stroke:none"
         id="path34" /><path
         d="m 2433.79,381.238 h 31.5 c 16.46,0 32.56,7 32.56,27.301 0,17.859 -11.55,26.961 -33.95,26.961 h -30.11 z m 47.25,98.024 c 49.01,0 78.06,-32.903 78.06,-68.614 0,-26.25 -13.65,-45.859 -40.95,-58.457 24.5,-12.25 31.85,-41.671 65.46,-111.671 h -65.46 c -25.55,51.109 -35.01,96.968 -67.21,96.968 h -17.15 V 240.52 h -59.51 v 238.742 h 106.76"
         style="fill:#231f20;fill-opacity:1;fill-rule:nonzero;stroke:none"
         id="path36" /><path
         d="m 2828.62,410.641 c -30.45,14.687 -59.85,22.05 -89.26,22.05 -64.75,0 -87.5,-39.91 -87.5,-75.25 0,-42.363 33.24,-70.371 82.6,-70.371 14.71,0 22.05,1.399 39.57,8.41 v 28 h -34.67 v 43.75 h 94.16 v -97.66 c -17.85,-18.558 -61.96,-32.203 -100.46,-32.203 -83.32,0 -142.47,50.762 -142.47,122.16 0,72.813 58.81,122.864 143.87,122.864 35.7,0 70.35,-8.032 94.16,-19.59 v -52.16"
         style="fill:#231f20;fill-opacity:1;fill-rule:nonzero;stroke:none"
         id="path38" /><path
         d="m 904.949,899.219 c 18.551,-24.071 47.602,-39.629 80.332,-39.629 56.019,0 101.449,45.43 101.449,101.461 0,25.187 -9.33,48.119 -24.57,65.859 -40.15,-37.801 -96.82,-87.25 -157.308,-127.562 0.046,-0.028 0.07,-0.078 0.097,-0.129"
         style="fill:#918f90;fill-opacity:1;fill-rule:nonzero;stroke:none"
         id="path40" /><path
         d="m 1348.83,801.488 c -0.08,0.223 -3.78,22.461 -26.02,34.961 l 15.02,6.082 c 26.39,-14.801 30.48,-39.211 30.66,-40.25 z m -150.52,110.641 c 28.87,-17.899 82.47,-27.34 114.71,-2 10.11,8.012 17.81,18.18 23.43,29.019 9.52,-7.089 17.39,-15.41 22.67,-22.679 -6.02,-11.481 -11.92,-23.598 -32.35,-36.168 -50.63,-30.852 -125.8,2.008 -128.46,31.828 z m 234.11,35.191 c 15.17,60.17 -25.74,104.4 -25.07,100.03 5.99,-38.12 -8.83,-64.67 -11.02,-62.991 -7.58,6 -31.59,21.301 -56.6,19.241 -21.66,49.14 -120.37,104.89 -218.45,81.64 -0.2,-0.04 -4.73,-4.81 -12.67,-12.89 8.73,-9.63 16.43,-20.21 22.72,-31.71 l -29.77,-15.85 c 9.11,-16.58 14.64,-35.36 15.9,-55.29 l 33.91,-0.48 c 0.14,-2.641 0.22,-5.301 0.22,-7.981 0,-24.16 -5.21,-47.09 -14.48,-67.828 l -30.73,13.93 c -7.63,-17.121 -18.81,-32.282 -32.59,-44.629 l 20.59,-26.934 c -19.82,-17.226 -43.74,-29.859 -70.16,-36.207 l -6.72,33.168 c -10.34,-2.59 -21.09,-4.117 -32.219,-4.117 -10.519,0 -20.722,1.367 -30.511,3.668 l -9.09,-32.57 c -24.789,6.058 -47.391,17.64 -66.43,33.421 l 20.719,26.637 c -7.91,6.652 -15,14.231 -21.18,22.531 -0.09,0.141 -0.18,0.301 -0.289,0.442 -35.27,-21.422 -71.199,-38.789 -105.371,-48.141 -158.07,-42.449 -80.008,138.199 -80.008,138.199 l -48.832,-34.648 c 0,0 -16.211,-70.539 21.402,-108.481 21.758,-21.968 71.008,-26.039 115.5,-15.64 0,0 -9.679,-57.621 -15.402,-115.578 -5.66,-57.973 -16.211,-59.242 -47.48,-154.051 -5.661,-14.84 -10.797,-21.289 -19.129,-45.281 h 88.148 c 0,0 0.942,7.148 -7.308,18.531 -19.872,27.629 -17.391,51.66 35.371,96.75 24.23,20.98 35.519,35 52.281,57.059 2.226,-5.758 -3.961,-40.051 -19.094,-62.969 0,0 82.453,-73.77 78.242,-109.371 h 68.879 c -3.429,41.621 -83.258,65.89 -83.777,110.648 -0.07,7.344 14.808,40.043 27.379,63.371 58.859,-23.379 126.599,-48.121 166.629,-30.359 -7,-40.36 -41.12,-96.879 -48.61,-143.66 h 88.11 c 0,0 -0.12,11.672 -10.79,22.379 -22.87,23.14 -14.65,60.902 33.94,105.332 9.96,9.211 25.08,21.64 41.37,34.621 41.79,-23.434 47.15,-29.313 42.13,-39.071 -10.22,-19.703 -35.33,-29.582 -52.02,-24.972 -0.21,0.07 -33.59,-28.739 -38.39,-40.117 0,0 31.62,-4.563 54.37,0 22.73,4.558 84.8,48.757 89.91,67.32 2.49,7.988 -37.79,54.598 -50.19,72.777 21.62,16.789 48.81,32.91 48.81,32.91 l 46.16,-32.98 c 11.62,1.199 64.19,27.199 64.19,27.199 0,0 26.64,112.051 42.23,140.91 7.1,13.25 -24.73,82.082 -24.73,82.082"
         style="fill:#918f90;fill-opacity:1;fill-rule:nonzero;stroke:none"
         id="path42" /><path
         d="m 883.801,961.051 c 0,56.019 45.437,101.439 101.469,101.439 29.66,0 56.26,-12.8 74.82,-33.09 0.72,-0.8 1.37,-1.67 2.07,-2.49 20.23,19.03 36.21,35.02 46.45,45.44 -1.04,1.13 -2.02,2.3 -3.07,3.41 -8.64,9.05 -18.25,17.17 -28.75,24.12 l -15.98,-29.92 c -14.41,10.02 -30.87,17.29 -48.65,20.95 l 5.87,33.18 c -10.6,2.12 -21.542,3.25 -32.76,3.25 -14.989,0 -29.489,-2.02 -43.301,-5.73 l 7.191,-33.06 c -17.23,-4.87 -33.039,-13.09 -46.648,-23.99 l -20.852,26.51 c -19.23,-15.35 -35.012,-34.85 -45.922,-57.19 l 30,-15.71 c -7.226,-15.08 -11.66,-31.721 -12.687,-49.311 l -33.879,0.52 c -0.133,-2.758 -0.211,-5.527 -0.211,-8.34 0,-23.93 5.098,-46.648 14.187,-67.211 l 30.481,14.473 c 3.973,-9.192 9.012,-17.789 14.859,-25.75 8.852,5.359 17.641,11 26.352,16.801 -13.141,17.117 -21.039,38.457 -21.039,61.699"
         style="fill:#918f90;fill-opacity:1;fill-rule:nonzero;stroke:none"
         id="path44" /><path
         d="m 591.18,126.84 c 0,2.867 1.008,5.308 3.023,7.328 2.016,2.012 4.43,3.02 7.231,3.02 2.804,0 5.211,-1.008 7.23,-3.02 2.012,-2.02 3.024,-4.461 3.024,-7.328 0,-2.809 -1.012,-5.219 -3.024,-7.231 -2.019,-2.019 -4.426,-3.031 -7.23,-3.031 -2.801,0 -5.215,1.012 -7.231,3.031 -2.015,2.012 -3.023,4.422 -3.023,7.231 z M 607.039,97.3008 593.813,2.96875 H 576.004 L 589.23,97.3008 h 17.809"
         style="fill:#231f20;fill-opacity:1;fill-rule:nonzero;stroke:none"
         id="path46" /><path
         d="m 670.949,97.3008 -2.394,-16.6914 0.476,-0.3281 c 10.051,12.3085 20.469,18.457 31.27,18.457 7.316,0 12.988,-2.6875 17.023,-8.0469 4.031,-5.3711 6.047,-12.293 6.047,-20.7695 0,-2.3906 -0.203,-4.8828 -0.613,-7.4805 L 713.715,2.96875 h -17.613 l 8.613,60.08985 c 0.344,2.1133 0.512,4.0625 0.512,5.8516 0,4.9179 -1.028,8.6679 -3.086,11.2617 -2.055,2.5976 -4.621,3.9062 -7.707,3.9062 -1.786,0 -3.789,-0.4492 -6.016,-1.3398 -2.227,-0.8867 -4.609,-2.25 -7.145,-4.0977 -2.539,-1.8398 -5.675,-4.6406 -9.41,-8.4023 -3.734,-3.7578 -5.679,-6.1485 -5.828,-7.1797 L 657.41,2.96875 h -17.601 l 13.226,94.33205 h 17.914"
         style="fill:#231f20;fill-opacity:1;fill-rule:nonzero;stroke:none"
         id="path48" /><path
         d="M 814.867,97.3008 812.922,83.3594 H 794.164 L 784.992,31.7891 C 784.516,29.1914 784.281,27 784.281,25.2188 784.281,19.0586 787.59,16 794.23,16 c 4.934,0 10.684,1.8711 17.258,5.6289 L 810.453,4.19922 C 803.891,1.39844 797.367,0 790.871,0 783.148,0 777.043,1.96094 772.57,5.89063 768.09,9.82031 765.852,15 765.852,21.4219 c 0,1.5781 0.148,3.1875 0.441,4.8398 l 9.91,57.0977 h -16.609 l 2.168,13.9414 h 17.254 l 3.449,19.2772 h 17.605 l -3.425,-19.2772 h 18.222"
         style="fill:#231f20;fill-opacity:1;fill-rule:nonzero;stroke:none"
         id="path50" /><path
         d="m 895.285,143.652 h 21.223 l -23.789,-30.664 h -11.68 z M 866.242,64.2891 h 39.504 c 0,6.5625 -1.484,11.7304 -4.465,15.5312 -2.976,3.7891 -7.168,5.6914 -12.566,5.6914 -10.266,0 -17.754,-7.0703 -22.473,-21.2226 z m 52.121,-36.711 -2.57,-17.0195 C 906.223,3.51172 895.727,0 884.32,0 c -11.894,0 -21.457,4.14844 -28.664,12.4492 -7.215,8.3125 -10.82,19.3711 -10.82,33.1719 0,15.3789 4.328,28.3203 12.969,38.8086 8.652,10.5 19.23,15.7423 31.738,15.7423 9.57,0 17.531,-3.672 23.898,-11.0236 6.348,-7.3398 9.532,-16.8398 9.532,-28.4492 0,-2.8711 -0.207,-5.8203 -0.618,-8.8281 H 863.5 c -0.547,-3.1406 -0.82,-6.1523 -0.82,-9.0195 0,-8.6797 2.371,-15.5313 7.129,-20.5625 4.746,-5.0196 10.711,-7.5274 17.89,-7.5274 8.75,0 18.965,4.2696 30.664,12.8164"
         style="fill:#231f20;fill-opacity:1;fill-rule:nonzero;stroke:none"
         id="path52" /><path
         d="m 990.531,97.3008 -2.765,-17.9492 0.41,-0.4102 c 5.605,8.0078 10.058,13.3086 13.344,15.8984 3.28,2.6016 7.18,3.8985 11.7,3.8985 2.8,0 5.41,-0.4766 7.8,-1.4375 V 77.1094 c -3.76,2.1094 -7.42,3.1719 -10.98,3.1719 -3.49,0 -6.61,-0.8711 -9.34,-2.6094 -2.739,-1.7422 -6.059,-5.4727 -9.954,-11.1836 -3.906,-5.707 -5.918,-9.1797 -6.055,-10.4102 L 977.309,2.96875 h -17.813 l 13.223,94.33205 h 17.812"
         style="fill:#231f20;fill-opacity:1;fill-rule:nonzero;stroke:none"
         id="path54" /><path
         d="m 1064.52,126.84 c 0,2.867 1,5.308 3.01,7.328 2.02,2.012 4.43,3.02 7.24,3.02 2.79,0 5.2,-1.008 7.23,-3.02 2.01,-2.02 3.02,-4.461 3.02,-7.328 0,-2.809 -1.01,-5.219 -3.02,-7.231 -2.03,-2.019 -4.44,-3.031 -7.23,-3.031 -2.81,0 -5.22,1.012 -7.24,3.031 -2.01,2.012 -3.01,4.422 -3.01,7.231 z m 15.85,-29.5392 -13.23,-94.33205 h -17.8 l 13.22,94.33205 h 17.81"
         style="fill:#231f20;fill-opacity:1;fill-rule:nonzero;stroke:none"
         id="path56" /><path
         d="m 1142.75,97.3008 -2.33,-16.2813 c 10.99,11.8086 21.94,17.7188 32.85,17.7188 12.14,0 19.26,-7.0781 21.38,-21.2188 11.48,14.1407 23.22,21.2188 35.26,21.2188 6.69,0 12.07,-2.2891 16.13,-6.8672 4.06,-4.582 6.09,-11 6.09,-19.2695 0,-2.6016 -0.2,-5.4414 -0.61,-8.5118 l -8.6,-61.12105 h -17.82 l 8.83,61.92965 c 0.33,2.1211 0.51,4.1016 0.51,5.9532 0,9.2265 -3.38,13.8398 -10.16,13.8398 -1.71,0 -3.58,-0.3516 -5.63,-1.082 -2.05,-0.711 -4.35,-1.8906 -6.87,-3.5313 -2.53,-1.6367 -5.97,-4.6093 -10.31,-8.9297 -4.34,-4.2968 -6.61,-7.0703 -6.82,-8.2968 l -8.64,-59.88285 h -17.81 l 8.4,59.67965 c 0.48,2.9414 0.73,5.5625 0.73,7.9024 0,9.4297 -3.72,14.1406 -11.16,14.1406 -4.71,0 -10.56,-3.293 -17.55,-9.9023 -7,-6.5977 -10.59,-10.5782 -10.78,-11.9493 l -8.53,-59.87105 h -17.82 l 13.44,94.33205 h 17.82"
         style="fill:#231f20;fill-opacity:1;fill-rule:nonzero;stroke:none"
         id="path58" /><path
         d="m 1395.84,64.2891 h 39.51 c 0,6.5625 -1.49,11.7304 -4.47,15.5312 -2.98,3.7891 -7.17,5.6914 -12.57,5.6914 -10.26,0 -17.75,-7.0703 -22.47,-21.2226 z m 52.12,-36.711 -2.57,-17.0195 C 1435.82,3.51172 1425.33,0 1413.92,0 c -11.9,0 -21.46,4.14844 -28.66,12.4492 -7.22,8.3125 -10.82,19.3711 -10.82,33.1719 0,15.3789 4.32,28.3203 12.97,38.8086 8.65,10.5 19.22,15.7423 31.73,15.7423 9.57,0 17.53,-3.672 23.9,-11.0236 6.35,-7.3398 9.53,-16.8398 9.53,-28.4492 0,-2.8711 -0.2,-5.8203 -0.61,-8.8281 h -58.86 c -0.55,-3.1406 -0.82,-6.1523 -0.82,-9.0195 0,-8.6797 2.37,-15.5313 7.13,-20.5625 4.74,-5.0196 10.71,-7.5274 17.89,-7.5274 8.75,0 18.96,4.2696 30.66,12.8164"
         style="fill:#231f20;fill-opacity:1;fill-rule:nonzero;stroke:none"
         id="path60" /><path
         d="m 1541.18,97.3008 -1.94,-13.9414 h -18.76 l -9.17,-51.5703 c -0.48,-2.5977 -0.71,-4.7891 -0.71,-6.5703 0,-6.1602 3.31,-9.2188 9.95,-9.2188 4.93,0 10.68,1.8711 17.26,5.6289 L 1536.77,4.19922 C 1530.21,1.39844 1523.68,0 1517.19,0 c -7.72,0 -13.83,1.96094 -18.3,5.89063 -4.48,3.92968 -6.72,9.10937 -6.72,15.53127 0,1.5781 0.15,3.1875 0.44,4.8398 l 9.91,57.0977 h -16.61 l 2.18,13.9414 h 17.25 l 3.44,19.2772 h 17.61 l -3.43,-19.2772 h 18.22"
         style="fill:#231f20;fill-opacity:1;fill-rule:nonzero;stroke:none"
         id="path62" /><path
         d="m 1683.22,97.3008 -2.77,-17.9492 0.41,-0.4102 c 5.61,8.0078 10.06,13.3086 13.34,15.8984 3.28,2.6016 7.19,3.8985 11.7,3.8985 2.8,0 5.41,-0.4766 7.8,-1.4375 V 77.1094 c -3.76,2.1094 -7.42,3.1719 -10.97,3.1719 -3.5,0 -6.61,-0.8711 -9.35,-2.6094 -2.73,-1.7422 -6.05,-5.4727 -9.95,-11.1836 -3.91,-5.707 -5.92,-9.1797 -6.05,-10.4102 l -7.39,-53.10935 h -17.81 l 13.22,94.33205 h 17.82"
         style="fill:#231f20;fill-opacity:1;fill-rule:nonzero;stroke:none"
         id="path64" /><path
         d="m 1760.35,64.2891 h 39.51 c 0,6.5625 -1.49,11.7304 -4.47,15.5312 -2.97,3.7891 -7.16,5.6914 -12.56,5.6914 -10.27,0 -17.76,-7.0703 -22.48,-21.2226 z m 52.12,-36.711 -2.56,-17.0195 C 1800.34,3.51172 1789.84,0 1778.43,0 c -11.89,0 -21.45,4.14844 -28.66,12.4492 -7.22,8.3125 -10.82,19.3711 -10.82,33.1719 0,15.3789 4.32,28.3203 12.97,38.8086 8.65,10.5 19.23,15.7423 31.74,15.7423 9.57,0 17.52,-3.672 23.89,-11.0236 6.35,-7.3398 9.53,-16.8398 9.53,-28.4492 0,-2.8711 -0.2,-5.8203 -0.61,-8.8281 h -58.86 c -0.55,-3.1406 -0.82,-6.1523 -0.82,-9.0195 0,-8.6797 2.37,-15.5313 7.13,-20.5625 4.75,-5.0196 10.71,-7.5274 17.89,-7.5274 8.75,0 18.96,4.2696 30.66,12.8164"
         style="fill:#231f20;fill-opacity:1;fill-rule:nonzero;stroke:none"
         id="path66" /><path
         d="M 1920.77,23.9805 1918.72,6.76172 C 1910.52,2.25 1901.76,0 1892.47,0 c -12.65,0 -22.75,3.94141 -30.3,11.8398 -7.56,7.8985 -11.34,18.4297 -11.34,31.6407 0,15.9101 5.74,29.3476 17.18,40.289 11.46,10.9414 26.1,16.4025 43.94,16.4025 4.51,0 9.91,-0.5431 16.21,-1.6407 l -2.37,-15.793 c -4.44,1.0312 -8.99,1.543 -13.63,1.543 -12.38,0 -22.64,-3.9727 -30.82,-11.9024 -8.16,-7.9297 -12.24,-17.1875 -12.24,-27.7773 0,-8.8907 2.3,-15.8828 6.91,-20.9727 4.62,-5.0976 10.92,-7.6289 18.92,-7.6289 8.47,0 17.09,2.6484 25.84,7.9805"
         style="fill:#231f20;fill-opacity:1;fill-rule:nonzero;stroke:none"
         id="path68" /><path
         d="m 1988.33,97.3008 -2.76,-17.9492 0.41,-0.4102 c 5.61,8.0078 10.06,13.3086 13.34,15.8984 3.28,2.6016 7.19,3.8985 11.7,3.8985 2.8,0 5.41,-0.4766 7.8,-1.4375 V 77.1094 c -3.76,2.1094 -7.42,3.1719 -10.97,3.1719 -3.5,0 -6.62,-0.8711 -9.35,-2.6094 -2.73,-1.7422 -6.06,-5.4727 -9.95,-11.1836 -3.91,-5.707 -5.92,-9.1797 -6.06,-10.4102 l -7.38,-53.10935 h -17.81 l 13.22,94.33205 h 17.81"
         style="fill:#231f20;fill-opacity:1;fill-rule:nonzero;stroke:none"
         id="path70" /><path
         d="M 2130.17,97.3008 2116.73,2.96875 h -17.6 l 1.64,15.99215 C 2089.9,7.33984 2079.54,1.53125 2069.7,1.53125 c -6.36,0 -11.74,2.27734 -16.15,6.82031 -4.41,4.54684 -6.61,11.01954 -6.61,19.42974 0,2.3906 0.16,4.8203 0.51,7.2773 l 8.81,62.2422 h 17.83 l -8.81,-62.2305 c -0.29,-2.0508 -0.41,-3.9687 -0.41,-5.7422 0,-9.4492 3.48,-14.1562 10.46,-14.1562 7.31,0 16.78,6.9375 28.41,20.8164 l 8.62,61.3125 h 17.81"
         style="fill:#231f20;fill-opacity:1;fill-rule:nonzero;stroke:none"
         id="path72" /><path
         d="m 2219.43,97.3008 -1.95,-13.9414 h -18.76 l -9.17,-51.5703 c -0.47,-2.5977 -0.71,-4.7891 -0.71,-6.5703 0,-6.1602 3.31,-9.2188 9.95,-9.2188 4.93,0 10.69,1.8711 17.26,5.6289 L 2215.01,4.19922 C 2208.45,1.39844 2201.93,0 2195.43,0 c -7.72,0 -13.83,1.96094 -18.3,5.89063 -4.48,3.92968 -6.72,9.10937 -6.72,15.53127 0,1.5781 0.15,3.1875 0.44,4.8398 l 9.92,57.0977 h -16.62 l 2.18,13.9414 h 17.25 l 3.44,19.2772 h 17.61 l -3.43,-19.2772 h 18.23"
         style="fill:#231f20;fill-opacity:1;fill-rule:nonzero;stroke:none"
         id="path74" /><path
         d="m 2270.8,64.2891 h 39.51 c 0,6.5625 -1.49,11.7304 -4.47,15.5312 -2.98,3.7891 -7.16,5.6914 -12.57,5.6914 -10.26,0 -17.75,-7.0703 -22.47,-21.2226 z m 52.12,-36.711 -2.57,-17.0195 C 2310.78,3.51172 2300.29,0 2288.88,0 c -11.89,0 -21.45,4.14844 -28.66,12.4492 -7.22,8.3125 -10.82,19.3711 -10.82,33.1719 0,15.3789 4.32,28.3203 12.97,38.8086 8.65,10.5 19.23,15.7423 31.73,15.7423 9.58,0 17.53,-3.672 23.9,-11.0236 6.35,-7.3398 9.53,-16.8398 9.53,-28.4492 0,-2.8711 -0.2,-5.8203 -0.61,-8.8281 h -58.86 c -0.55,-3.1406 -0.82,-6.1523 -0.82,-9.0195 0,-8.6797 2.37,-15.5313 7.13,-20.5625 4.74,-5.0196 10.71,-7.5274 17.89,-7.5274 8.75,0 18.96,4.2696 30.66,12.8164"
         style="fill:#231f20;fill-opacity:1;fill-rule:nonzero;stroke:none"
         id="path76" /><path
         d="m 2392.13,97.3008 -2.32,-16.2813 c 10.98,11.8086 21.93,17.7188 32.84,17.7188 12.15,0 19.27,-7.0781 21.39,-21.2188 11.47,14.1407 23.22,21.2188 35.25,21.2188 6.69,0 12.07,-2.2891 16.13,-6.8672 4.07,-4.582 6.1,-11 6.1,-19.2695 0,-2.6016 -0.21,-5.4414 -0.62,-8.5118 l -8.59,-61.12105 h -17.82 l 8.82,61.92965 c 0.34,2.1211 0.51,4.1016 0.51,5.9532 0,9.2265 -3.38,13.8398 -10.15,13.8398 -1.71,0 -3.59,-0.3516 -5.64,-1.082 -2.05,-0.711 -4.35,-1.8906 -6.86,-3.5313 -2.53,-1.6367 -5.97,-4.6093 -10.32,-8.9297 -4.33,-4.2968 -6.61,-7.0703 -6.81,-8.2968 l -8.65,-59.88285 h -17.81 l 8.41,59.67965 c 0.48,2.9414 0.72,5.5625 0.72,7.9024 0,9.4297 -3.72,14.1406 -11.16,14.1406 -4.71,0 -10.56,-3.293 -17.55,-9.9023 -6.99,-6.5977 -10.58,-10.5782 -10.78,-11.9493 l -8.53,-59.87105 h -17.82 l 13.44,94.33205 h 17.82"
         style="fill:#231f20;fill-opacity:1;fill-rule:nonzero;stroke:none"
         id="path78" /><path
         d="m 2564.01,64.2891 h 39.5 c 0,6.5625 -1.49,11.7304 -4.46,15.5312 -2.98,3.7891 -7.17,5.6914 -12.57,5.6914 -10.27,0 -17.76,-7.0703 -22.47,-21.2226 z m 52.12,-36.711 -2.57,-17.0195 C 2603.99,3.51172 2593.49,0 2582.08,0 c -11.89,0 -21.45,4.14844 -28.66,12.4492 -7.22,8.3125 -10.82,19.3711 -10.82,33.1719 0,15.3789 4.33,28.3203 12.97,38.8086 8.65,10.5 19.23,15.7423 31.74,15.7423 9.57,0 17.53,-3.672 23.89,-11.0236 6.35,-7.3398 9.54,-16.8398 9.54,-28.4492 0,-2.8711 -0.21,-5.8203 -0.62,-8.8281 h -58.86 c -0.54,-3.1406 -0.82,-6.1523 -0.82,-9.0195 0,-8.6797 2.38,-15.5313 7.13,-20.5625 4.75,-5.0196 10.71,-7.5274 17.89,-7.5274 8.75,0 18.97,4.2696 30.67,12.8164"
         style="fill:#231f20;fill-opacity:1;fill-rule:nonzero;stroke:none"
         id="path80" /><path
         d="m 2686.86,97.3008 -2.39,-16.6914 0.47,-0.3281 c 10.05,12.3085 20.47,18.457 31.27,18.457 7.32,0 12.99,-2.6875 17.03,-8.0469 4.03,-5.3711 6.05,-12.293 6.05,-20.7695 0,-2.3906 -0.2,-4.8828 -0.61,-7.4805 l -9.06,-59.47265 h -17.6 l 8.61,60.08985 c 0.34,2.1133 0.52,4.0625 0.52,5.8516 0,4.9179 -1.04,8.6679 -3.09,11.2617 -2.06,2.5976 -4.63,3.9062 -7.71,3.9062 -1.79,0 -3.79,-0.4492 -6.02,-1.3398 -2.23,-0.8867 -4.61,-2.25 -7.15,-4.0977 -2.53,-1.8398 -5.67,-4.6406 -9.4,-8.4023 -3.74,-3.7578 -5.69,-6.1485 -5.83,-7.1797 l -8.63,-60.08985 h -17.6 l 13.23,94.33205 h 17.91"
         style="fill:#231f20;fill-opacity:1;fill-rule:nonzero;stroke:none"
         id="path82" /><path
         d="m 2830.77,97.3008 -1.94,-13.9414 h -18.76 l -9.17,-51.5703 c -0.48,-2.5977 -0.71,-4.7891 -0.71,-6.5703 0,-6.1602 3.31,-9.2188 9.95,-9.2188 4.93,0 10.68,1.8711 17.26,5.6289 L 2826.36,4.19922 C 2819.8,1.39844 2813.27,0 2806.78,0 c -7.72,0 -13.83,1.96094 -18.3,5.89063 -4.48,3.92968 -6.72,9.10937 -6.72,15.53127 0,1.5781 0.15,3.1875 0.44,4.8398 l 9.91,57.0977 h -16.61 l 2.18,13.9414 h 17.25 l 3.44,19.2772 h 17.61 l -3.43,-19.2772 h 18.22"
         style="fill:#231f20;fill-opacity:1;fill-rule:nonzero;stroke:none"
         id="path84" /></g></g></svg>
